<?xml version="1.0" encoding="utf-8"?>
<!-- Generator: Adobe Illustrator 23.0.1, SVG Export Plug-In . SVG Version: 6.00 Build 0)  -->
<svg version="1.1" id="Ebene_1" xmlns="http://www.w3.org/2000/svg" xmlns:xlink="http://www.w3.org/1999/xlink" x="0px" y="0px"
	 viewBox="0 0 600 600" style="enable-background:new 0 0 600 600;" xml:space="preserve">
<style type="text/css">
	.st0{fill:url(#SVGID_1_);}
	.st1{opacity:0.62;fill:url(#SVGID_2_);enable-background:new    ;}
	.st2{fill:url(#SVGID_3_);}
	.st3{clip-path:url(#SVGID_5_);}
	.st4{clip-path:url(#SVGID_7_);fill:url(#SVGID_8_);}
	.st5{fill:url(#SVGID_9_);}
</style>
<linearGradient id="SVGID_1_" gradientUnits="userSpaceOnUse" x1="592.7539" y1="373.3738" x2="133.2259" y2="-12.216" gradientTransform="matrix(-1 0 0 -1 604 600)">
	<stop  offset="1.217023e-03" style="stop-color:#8F3AE8"/>
	<stop  offset="0.9987" style="stop-color:#D88DF7"/>
</linearGradient>
<path class="st0" d="M30.8,416.7L104.3,119c0.1-0.4,0.2-0.7,0.3-1.1l0,0c2-7.4,8.7-12.9,16.8-12.9c4.3,0,8.2,1.6,11.3,4.2l21.3,17.9
	l92.7,80.8c-2.4,2.7-2.6,6.5-2.6,10.3c0,64,55.4,116,123.7,116c7.2,0,14.2-0.6,21.1-1.7l145,126.3l24.3,2v40.9
	c0,9.6-7.8,17.4-17.4,17.4c-1,0-1.9-0.1-2.9-0.3L45.1,474.5c-9.6,0-17.4-7.8-17.4-17.4l-3-40.9L30.8,416.7z"/>
<linearGradient id="SVGID_2_" gradientUnits="userSpaceOnUse" x1="561.9" y1="123.7" x2="63.2" y2="123.7" gradientTransform="matrix(-1 0 0 -1 604 600)">
	<stop  offset="7.851759e-05" style="stop-color:#A0C2FC"/>
	<stop  offset="0.1649" style="stop-color:#79FFFE"/>
	<stop  offset="0.9187" style="stop-color:#76E2FF"/>
	<stop  offset="1" style="stop-color:#CB90F4"/>
</linearGradient>
<path class="st1" d="M42.1,433.6l495.8,44.2c0.9,0.2,1.9,0.3,2.9,0.3V519c-1,0-1.9-0.1-2.9-0.3L45.1,474.5L42.1,433.6z"/>
<linearGradient id="SVGID_3_" gradientUnits="userSpaceOnUse" x1="270.2969" y1="45.5036" x2="448.6356" y2="535.485" gradientTransform="matrix(-1 0 0 -1 604 600)">
	<stop  offset="1.217023e-03" style="stop-color:#FEA0FE"/>
	<stop  offset="0.9987" style="stop-color:#A684F7"/>
</linearGradient>
<path class="st2" d="M25.3,412.1l79-320.1c0.1-0.4,0.2-0.7,0.3-1.1l0,0c2-7.4,8.7-12.9,16.8-12.9c4.3,0,8.2,1.6,11.3,4.2L152,99
	l94.7,81.8c-0.4,3.7-0.3,7.2-0.6,11.3C242,258,299.5,307,367.8,307c7.2,0,14.2-0.6,21.1-1.7l163.3,142.2l0,0c3.7,3.2,6,7.9,6,13.1
	c0,9.6-7.8,17.4-17.4,17.4c-1,0-1.9-0.1-2.9-0.3L42.1,433.6c-9.6,0-17.4-7.8-17.4-17.4C24.8,414.8,24.9,413.4,25.3,412.1z"/>
<g>
	<defs>
		<polygon id="SVGID_4_" points="24.8,422 326,243 582.2,462.5 555.2,499.5 21.8,435.4 		"/>
	</defs>
	<clipPath id="SVGID_5_">
		<use xlink:href="#SVGID_4_"  style="overflow:visible;"/>
	</clipPath>
	<g class="st3">
		<g>
			<defs>
				<path id="SVGID_6_" d="M25.3,412.1l79-320.1c0.1-0.4,0.2-0.7,0.3-1.1l0,0c2-7.4,8.7-12.9,16.8-12.9c4.3,0,8.2,1.6,11.3,4.2
					L152,99l94.7,81.8c-0.4,3.7-0.3,7.5-0.6,11.3C241,258,299.5,307,367.8,307c7.2,0,14.2-0.6,21.1-1.7l163.3,142.2l0,0
					c3.7,3.2,6,7.9,6,13.1c0,9.6-7.8,17.4-17.4,17.4c-1,0-1.9-0.1-2.9-0.3L42.1,433.6c-9.6,0-17.4-7.8-17.4-17.4
					C24.8,414.8,24.9,413.4,25.3,412.1z"/>
			</defs>
			<clipPath id="SVGID_7_">
				<use xlink:href="#SVGID_6_"  style="overflow:visible;"/>
			</clipPath>
			
				<linearGradient id="SVGID_8_" gradientUnits="userSpaceOnUse" x1="34.7278" y1="166.7455" x2="555.1338" y2="356.1578" gradientTransform="matrix(-1 0 0 -1 604 600)">
				<stop  offset="0" style="stop-color:#79FFFE"/>
				<stop  offset="0.9999" style="stop-color:#A2A2FC"/>
			</linearGradient>
			<path class="st4" d="M25.3,412.1L25.3,412.1l79-320.1c0.1-0.4,0.2-0.7,0.3-1.1l0,0l0,0c2-7.4,8.7-12.9,16.8-12.9
				c4.3,0,8.2,1.6,11.3,4.2L152,99l400.2,348.5l0,0c3.7,3.2,6,7.9,6,13.1c0,9.6-7.8,17.4-17.4,17.4c-1,0-1.9-0.1-2.9-0.3L42.1,433.6
				c-9.6,0-17.4-7.8-17.4-17.4C24.8,414.8,24.9,413.4,25.3,412.1z"/>
		</g>
	</g>
</g>
<linearGradient id="SVGID_9_" gradientUnits="userSpaceOnUse" x1="142.586" y1="17.4099" x2="483.1496" y2="303.1766" gradientTransform="matrix(-1 0 0 -1 604 600)">
	<stop  offset="0" style="stop-color:#71D8FE"/>
	<stop  offset="0.8982" style="stop-color:#BDF1FB"/>
	<stop  offset="0.9975" style="stop-color:#DDA2FC"/>
</linearGradient>
<path class="st5" d="M25.8,410.1c2.4,6.7,8.8,11.6,16.4,11.6L538,465.9c0.9,0.2,1.9,0.3,2.9,0.3c7.5,0,13.9-4.7,16.3-11.4
	c0.7,1.9,1.1,3.9,1.1,6c0,9.6-7.8,17.4-17.4,17.4c-1,0-1.9-0.1-2.9-0.3L42.1,433.6c-9.6,0-17.4-7.8-17.4-17.4c0-1.4,0.2-2.8,0.5-4.1
	L25.8,410.1z"/>
</svg>
