<?xml version="1.0" encoding="utf-8"?>
<!-- Generator: Adobe Illustrator 23.0.1, SVG Export Plug-In . SVG Version: 6.00 Build 0)  -->
<svg version="1.1" id="Ebene_2" xmlns="http://www.w3.org/2000/svg" xmlns:xlink="http://www.w3.org/1999/xlink" x="0px" y="0px"
	 viewBox="0 0 600 600" style="enable-background:new 0 0 600 600;" xml:space="preserve">
<style type="text/css">
	.st0{fill:url(#SVGID_1_);}
	.st1{display:none;opacity:0.86;fill:url(#SVGID_2_);}
	.st2{opacity:0.62;fill:url(#SVGID_3_);}
	.st3{fill:url(#SVGID_4_);}
	.st4{clip-path:url(#SVGID_6_);}
	.st5{clip-path:url(#SVGID_8_);fill:url(#SVGID_9_);}
	.st6{fill:url(#SVGID_10_);}
</style>
<g>
	
		<linearGradient id="SVGID_1_" gradientUnits="userSpaceOnUse" x1="785.2028" y1="-289.2039" x2="379.3988" y2="51.3061" gradientTransform="matrix(0.5979 0.8016 0.8016 -0.5979 96.3946 -234.9455)">
		<stop  offset="1.217023e-03" style="stop-color:#FF6634"/>
		<stop  offset="0.9987" style="stop-color:#FCAD21"/>
	</linearGradient>
	<path class="st0" d="M466.3,364.8L205.9,558.1c-0.3,0.1-0.6,0.3-0.9,0.4l0,0c-6.4,2.6-14,0.6-18.3-5.2c-2.3-3.1-3.3-6.8-3.1-10.4
		l1.4-24.1l9-119.3c3.2,0.3,6.1-1.6,8.8-3.7c46.2-34.5,53.8-102.3,17.1-151.6c-3.9-5.2-8.1-9.9-12.6-14.3L219,75.5l-11.6-18.6
		l29.5-22c6.9-5.2,16.7-3.7,21.9,3.2c0.5,0.7,1,1.4,1.4,2.2l240.1,283.1c5.2,6.9,3.7,16.7-3.2,21.9l-27.9,24.2L466.3,364.8z"/>
	
		<linearGradient id="SVGID_2_" gradientUnits="userSpaceOnUse" x1="701.2393" y1="-219.6348" x2="378.9632" y2="50.7869" gradientTransform="matrix(0.5979 0.8016 0.8016 -0.5979 96.3946 -234.9455)">
		<stop  offset="1.217023e-03" style="stop-color:#FFD234"/>
		<stop  offset="0.9987" style="stop-color:#FCAD21"/>
	</linearGradient>
	<path class="st1" d="M465.5,443.6L230.7,62.3c-0.4-0.8-0.8-1.5-1.4-2.2c-5.2-6.9-15-8.4-21.9-3.2l29.5-22
		c6.9-5.2,16.7-3.7,21.9,3.2c0.5,0.7,1,1.4,1.4,2.2l233.2,379.2c5.2,6.9,3.7,16.7-3.2,21.9l-27.9,24.2
		C469.3,460.3,470.7,450.5,465.5,443.6z"/>
	
		<linearGradient id="SVGID_3_" gradientUnits="userSpaceOnUse" x1="691.7192" y1="-40.0848" x2="315.9401" y2="-40.0848" gradientTransform="matrix(0.5979 0.8016 0.8016 -0.5979 96.3946 -234.9455)">
		<stop  offset="1.275911e-03" style="stop-color:#FFC32B"/>
		<stop  offset="0.1649" style="stop-color:#FF7833"/>
		<stop  offset="0.9187" style="stop-color:#FCD321"/>
		<stop  offset="1" style="stop-color:#FCAF21"/>
	</linearGradient>
	<path class="st2" d="M472.4,347.6L230.7,62.3c-0.4-0.8-0.8-1.5-1.4-2.2l29.5-22c0.5,0.7,1,1.4,1.4,2.2l240.1,283.1L472.4,347.6z"/>
	
		<linearGradient id="SVGID_4_" gradientUnits="userSpaceOnUse" x1="480.1815" y1="-9.0516" x2="637.7058" y2="-441.8462" gradientTransform="matrix(0.5979 0.8016 0.8016 -0.5979 96.3946 -234.9455)">
		<stop  offset="1.217023e-03" style="stop-color:#FB605A"/>
		<stop  offset="0.9987" style="stop-color:#FC9421"/>
	</linearGradient>
	<path class="st3" d="M466,371.3L186.4,572.7c-0.3,0.1-0.6,0.3-0.9,0.4l0,0c-6.4,2.6-14,0.6-18.3-5.2c-2.3-3.1-3.3-6.8-3.1-10.4
		l1.8-23l8.6-120.4c2.9-1.7,5.4-3.6,8.4-5.6c49.8-32.5,54.2-100.3,17.4-149.6c-3.9-5.2-8.1-9.9-12.6-14.3l13.4-176.4l0,0
		c0.3-4.4,2.5-8.6,6.2-11.4c6.9-5.2,16.7-3.7,21.9,3.2c0.5,0.7,1,1.4,1.4,2.2l241.7,285.3c5.2,6.9,3.7,16.7-3.2,21.9
		C468.2,370.2,467.1,370.8,466,371.3z"/>
	<g>
		<defs>
			<polygon id="SVGID_5_" points="473.3,366.4 176.6,323.5 195.8,38.6 237.1,38.1 484.6,361.3 			"/>
		</defs>
		<clipPath id="SVGID_6_">
			<use xlink:href="#SVGID_5_"  style="overflow:visible;"/>
		</clipPath>
		<g class="st4">
			<defs>
				<path id="SVGID_7_" d="M466,371.3L185.7,582.5c-0.3,0.1-0.6,0.3-0.9,0.4l0,0c-6.4,2.6-14,0.6-18.3-5.2
					c-2.3-3.1-3.3-6.8-3.1-10.4l1.8-23l9.3-130.3c2.9-1.7,5.6-3.8,8.4-5.6c50.3-31.8,54.2-100.3,17.4-149.6
					c-3.9-5.2-8.1-9.9-12.6-14.3l13.4-176.4l0,0c0.3-4.4,2.5-8.6,6.2-11.4c6.9-5.2,16.7-3.7,21.9,3.2c0.5,0.7,1,1.4,1.4,2.2
					l241.7,285.3c5.2,6.9,3.7,16.7-3.2,21.9C468.2,370.2,467.1,370.8,466,371.3z"/>
			</defs>
			<clipPath id="SVGID_8_">
				<use xlink:href="#SVGID_7_"  style="overflow:visible;"/>
			</clipPath>
			
				<linearGradient id="SVGID_9_" gradientUnits="userSpaceOnUse" x1="289.7904" y1="-91.7828" x2="764.3921" y2="-264.5237" gradientTransform="matrix(0.5979 0.8016 0.8016 -0.5979 96.3946 -234.9455)">
				<stop  offset="0" style="stop-color:#FBF124"/>
				<stop  offset="0.9999" style="stop-color:#FC973B"/>
			</linearGradient>
			<path class="st5" d="M466,371.3L466,371.3L185.7,582.5c-0.3,0.1-0.6,0.3-0.9,0.4l0,0l0,0c-6.4,2.6-14,0.6-18.3-5.2
				c-2.3-3.1-3.3-6.8-3.1-10.4l3.1-40.9l36-476.1l-1.3,17.9c0.3-4.4,2.5-8.6,6.2-11.4c6.9-5.2,16.7-3.7,21.9,3.2
				c0.5,0.7,1,1.4,1.4,2.2l241.7,285.3c5.2,6.9,3.7,16.7-3.2,21.9C468.2,370.2,467.1,370.8,466,371.3z"/>
		</g>
	</g>
	
		<linearGradient id="SVGID_10_" gradientUnits="userSpaceOnUse" x1="387.8948" y1="24.6107" x2="620.4981" y2="-170.5667" gradientTransform="matrix(0.5979 0.8016 0.8016 -0.5979 96.3946 -234.9455)">
		<stop  offset="3.233126e-02" style="stop-color:#FFF32D"/>
		<stop  offset="0.8982" style="stop-color:#FCCE4E"/>
		<stop  offset="0.9975" style="stop-color:#FF8B1F"/>
	</linearGradient>
	<path class="st6" d="M464.2,372.1c3.6-5.4,3.6-12.6-0.5-18L222,68.7c-0.4-0.8-0.8-1.5-1.4-2.2c-4-5.4-10.9-7.4-17-5.6
		c1-1.5,2.2-2.9,3.7-4c6.9-5.2,16.7-3.7,21.9,3.2c0.5,0.7,1,1.4,1.4,2.2l241.7,285.3c5.2,6.9,3.7,16.7-3.2,21.9
		c-1,0.8-2.1,1.4-3.2,1.8L464.2,372.1z"/>
</g>
</svg>
