<?xml version="1.0" encoding="utf-8"?>
<!-- Generator: Adobe Illustrator 23.0.1, SVG Export Plug-In . SVG Version: 6.00 Build 0)  -->
<svg version="1.1" id="Ebene_2" xmlns="http://www.w3.org/2000/svg" xmlns:xlink="http://www.w3.org/1999/xlink" x="0px" y="0px"
	 viewBox="0 0 600 600" style="enable-background:new 0 0 600 600;" xml:space="preserve">
<style type="text/css">
	.st0{fill:url(#SVGID_1_);}
	.st1{display:none;opacity:0.86;fill:url(#SVGID_2_);}
	.st2{opacity:0.62;fill:url(#SVGID_3_);}
	.st3{fill:url(#SVGID_4_);}
	.st4{clip-path:url(#SVGID_6_);}
	.st5{clip-path:url(#SVGID_8_);fill:url(#SVGID_9_);}
	.st6{fill:url(#SVGID_10_);}
</style>
<g>
	<linearGradient id="SVGID_1_" gradientUnits="userSpaceOnUse" x1="592.7044" y1="226.6193" x2="133.2526" y2="612.1451">
		<stop  offset="1.217023e-03" style="stop-color:#FF6634"/>
		<stop  offset="0.9987" style="stop-color:#FCAD21"/>
	</linearGradient>
	<path class="st0" d="M573.2,416.7l-73.5-297.7c-0.1-0.4-0.2-0.7-0.3-1.1l0,0c-2-7.4-8.7-12.9-16.8-12.9c-4.3,0-8.2,1.6-11.3,4.2
		L450,127.1l-92.7,80.8c2.4,2.7,2.6,6.5,2.6,10.3c0,64-55.4,116-123.7,116c-7.2,0-14.2-0.6-21.1-1.7l-145,126.3l-24.3,2v40.9
		c0,9.6,7.8,17.4,17.4,17.4c1,0,1.9-0.1,2.9-0.3l492.8-44.2c9.6,0,17.4-7.8,17.4-17.4l3-40.9L573.2,416.7z"/>
	<linearGradient id="SVGID_2_" gradientUnits="userSpaceOnUse" x1="491.4427" y1="311.588" x2="133.2526" y2="612.1451">
		<stop  offset="1.217023e-03" style="stop-color:#FFD234"/>
		<stop  offset="0.9987" style="stop-color:#FCAD21"/>
	</linearGradient>
	<path class="st1" d="M561.9,433.6L66.1,477.8c-0.9,0.2-1.9,0.3-2.9,0.3c-9.6,0-17.4-7.8-17.4-17.4v40.9c0,9.6,7.8,17.4,17.4,17.4
		c1,0,1.9-0.1,2.9-0.3l492.8-44.2c9.6,0,17.4-7.8,17.4-17.4l3-40.9C579.2,425.8,571.5,433.6,561.9,433.6z"/>
	<linearGradient id="SVGID_3_" gradientUnits="userSpaceOnUse" x1="561.852" y1="476.3116" x2="63.2063" y2="476.3116">
		<stop  offset="1.275911e-03" style="stop-color:#FFC32B"/>
		<stop  offset="0.1649" style="stop-color:#FF7833"/>
		<stop  offset="0.9187" style="stop-color:#FCD321"/>
		<stop  offset="1" style="stop-color:#FCAF21"/>
	</linearGradient>
	<path class="st2" d="M561.9,433.6L66.1,477.8c-0.9,0.2-1.9,0.3-2.9,0.3V519c1,0,1.9-0.1,2.9-0.3l492.8-44.2L561.9,433.6z"/>
	<linearGradient id="SVGID_4_" gradientUnits="userSpaceOnUse" x1="270.2718" y1="554.5633" x2="448.6348" y2="64.5151">
		<stop  offset="1.217023e-03" style="stop-color:#FB605A"/>
		<stop  offset="0.9987" style="stop-color:#FC9421"/>
	</linearGradient>
	<path class="st3" d="M578.7,412.1L499.7,92c-0.1-0.4-0.2-0.7-0.3-1.1l0,0c-2-7.4-8.7-12.9-16.8-12.9c-4.3,0-8.2,1.6-11.3,4.2
		L452,99l-94.7,81.8c0.4,3.7,0.3,7.2,0.6,11.3c4.1,65.9-53.4,115-121.7,115c-7.2,0-14.2-0.6-21.1-1.7L51.8,447.5l0,0
		c-3.7,3.2-6,7.9-6,13.1c0,9.6,7.8,17.4,17.4,17.4c1,0,1.9-0.1,2.9-0.3l495.8-44.2c9.6,0,17.4-7.8,17.4-17.4
		C579.2,414.8,579.1,413.4,578.7,412.1z"/>
	<g>
		<defs>
			<polygon id="SVGID_5_" points="579.2,422 278,243 21.8,462.5 48.8,499.5 582.2,435.4 			"/>
		</defs>
		<clipPath id="SVGID_6_">
			<use xlink:href="#SVGID_5_"  style="overflow:visible;"/>
		</clipPath>
		<g class="st4">
			<defs>
				<path id="SVGID_7_" d="M578.7,412.1L499.7,92c-0.1-0.4-0.2-0.7-0.3-1.1l0,0c-2-7.4-8.7-12.9-16.8-12.9c-4.3,0-8.2,1.6-11.3,4.2
					L452,99l-94.7,81.8c0.4,3.7,0.3,7.5,0.6,11.3c5.1,65.9-53.4,115-121.7,115c-7.2,0-14.2-0.6-21.1-1.7L51.8,447.5l0,0
					c-3.7,3.2-6,7.9-6,13.1c0,9.6,7.8,17.4,17.4,17.4c1,0,1.9-0.1,2.9-0.3l495.8-44.2c9.6,0,17.4-7.8,17.4-17.4
					C579.2,414.8,579.1,413.4,578.7,412.1z"/>
			</defs>
			<clipPath id="SVGID_8_">
				<use xlink:href="#SVGID_7_"  style="overflow:visible;"/>
			</clipPath>
			<linearGradient id="SVGID_9_" gradientUnits="userSpaceOnUse" x1="34.7088" y1="433.2578" x2="555.1333" y2="243.8388">
				<stop  offset="0" style="stop-color:#FBF124"/>
				<stop  offset="0.9999" style="stop-color:#FC973B"/>
			</linearGradient>
			<path class="st5" d="M578.7,412.1L578.7,412.1L499.7,92c-0.1-0.4-0.2-0.7-0.3-1.1l0,0l0,0c-2-7.4-8.7-12.9-16.8-12.9
				c-4.3,0-8.2,1.6-11.3,4.2L452,99L51.8,447.5l0,0c-3.7,3.2-6,7.9-6,13.1c0,9.6,7.8,17.4,17.4,17.4c1,0,1.9-0.1,2.9-0.3l495.8-44.2
				c9.6,0,17.4-7.8,17.4-17.4C579.2,414.8,579.1,413.4,578.7,412.1z"/>
		</g>
	</g>
	<linearGradient id="SVGID_10_" gradientUnits="userSpaceOnUse" x1="142.6954" y1="582.4748" x2="483.1783" y2="296.7757">
		<stop  offset="3.233126e-02" style="stop-color:#FFF32D"/>
		<stop  offset="0.8982" style="stop-color:#FCCE4E"/>
		<stop  offset="0.9975" style="stop-color:#FF8B1F"/>
	</linearGradient>
	<path class="st6" d="M578.2,410.1c-2.4,6.7-8.8,11.6-16.4,11.6L66.1,465.8c-0.9,0.2-1.9,0.3-2.9,0.3c-7.5,0-13.9-4.7-16.3-11.4
		c-0.7,1.9-1.1,3.9-1.1,6c0,9.6,7.8,17.4,17.4,17.4c1,0,1.9-0.1,2.9-0.3l495.8-44.2c9.6,0,17.4-7.8,17.4-17.4c0-1.4-0.2-2.8-0.5-4.1
		L578.2,410.1z"/>
</g>
</svg>
